<svg xmlns="http://www.w3.org/2000/svg" viewBox="0 0 427.16 85.12"><defs><style>.cls-1{fill:#fff;}</style></defs><g id="Calque_2" data-name="Calque 2"><g id="Calque_1-2" data-name="Calque 1"><path class="cls-1" d="M78.76,42.5l-3,15H59.86L69,11.66a8.34,8.34,0,0,1,3.06-5.14,8.74,8.74,0,0,1,5.63-2h36.65a8.78,8.78,0,0,1,3.9.87,8.39,8.39,0,0,1,2.94,2.35,9.36,9.36,0,0,1,1.7,3.36,7.9,7.9,0,0,1,.08,3.93l-8.47,42.4H98.63l3-15Zm25.39-12.4L106.34,19a1.71,1.71,0,0,0-.38-1.47,1.67,1.67,0,0,0-1.36-.65H74.52l8.77,2.65L81.17,30.1Z"/><path class="cls-1" d="M171.72,57.46H135.06a8.71,8.71,0,0,1-3.89-.87,8.51,8.51,0,0,1-2.95-2.34,9.38,9.38,0,0,1-1.7-3.4,8.85,8.85,0,0,1-.15-4l8.47-42.33h15.87l-7.56,38-8.84,2.64h29.77a1.65,1.65,0,0,0,1.1-.42,1.86,1.86,0,0,0,.64-1l7.86-39.16h15.88l-9.15,45.81a8.36,8.36,0,0,1-3.06,5.14A8.77,8.77,0,0,1,171.72,57.46Z"/><path class="cls-1" d="M266,57.46,276.62,4.55H292.5L290,16.87h-9.3l8.77,2.65-7.56,37.94Z"/><path class="cls-1" d="M317.29,19.52,312.6,43A1.71,1.71,0,0,0,313,44.5a1.66,1.66,0,0,0,1.36.64h22.45a1.64,1.64,0,0,0,1.09-.42,1.86,1.86,0,0,0,.64-1L340,36.3h-6.58a5,5,0,0,1-2.26-.53,5.35,5.35,0,0,1-1.78-1.4,5.16,5.16,0,0,1-1-2,5.45,5.45,0,0,1-.08-2.38l.84-4.23H358l-4,20.4a14.34,14.34,0,0,1-1.81,4.58,14.89,14.89,0,0,1-3.1,3.59,13.4,13.4,0,0,1-4.12,2.34,14.17,14.17,0,0,1-4.8.83H303.3a7.86,7.86,0,0,1-3.4-.75,7.43,7.43,0,0,1-2.64-2.08,8.05,8.05,0,0,1-1.51-3,7.29,7.29,0,0,1-.08-3.48L303,11.66a8.42,8.42,0,0,1,3-5.14,8.64,8.64,0,0,1,5.6-2h49.2l-2.49,12.32H308.44Z"/><path class="cls-1" d="M288.22,80.37H281l-1,4.75h-5l2.91-14.54a2.61,2.61,0,0,1,1-1.63,2.76,2.76,0,0,1,1.79-.63h11.64a2.81,2.81,0,0,1,1.23.28,2.65,2.65,0,0,1,.94.74,3,3,0,0,1,.54,1.07,2.51,2.51,0,0,1,0,1.25L292.3,85.12h-5Zm-6.5-3.93H289l.69-3.53a.57.57,0,0,0-.12-.47.52.52,0,0,0-.43-.2H283a.49.49,0,0,0-.55.45Z"/><path class="cls-1" d="M318.15,68.32a2.84,2.84,0,0,1,2.16,1,2.87,2.87,0,0,1,.55,1.07,2.63,2.63,0,0,1,0,1.25l-.46,2.26h-5l.22-1a.57.57,0,0,0-.12-.47.54.54,0,0,0-.44-.2h-6.69a.53.53,0,0,0-.35.13.6.6,0,0,0-.2.32l-1.56,7.85a.51.51,0,0,0,.12.47.54.54,0,0,0,.43.2h6.57a.54.54,0,0,0,.56-.45l.24-1.23h5l-.67,3.34a2.71,2.71,0,0,1-1,1.63,2.74,2.74,0,0,1-1.78.62H303.29a2.51,2.51,0,0,1-1.08-.24,2.47,2.47,0,0,1-.84-.66,2.7,2.7,0,0,1-.48-.94,2.44,2.44,0,0,1,0-1.11l2.33-11.59a2.76,2.76,0,0,1,2.73-2.26Z"/><path class="cls-1" d="M326.7,85.12l3.35-16.8h5l-3.35,16.8Z"/><path class="cls-1" d="M363.25,68.32l-3.36,16.8h-8.67l-2.66-13.29-2.67,13.29h-5l3.36-16.8h8.69l2.67,13.3,2.64-13.3Z"/><path class="cls-1" d="M389.77,68.32l-.8,3.92h-12.4a.51.51,0,0,0-.35.13.69.69,0,0,0-.21.32l-1.55,7.85a.51.51,0,0,0,.12.47.54.54,0,0,0,.43.2h7.12a.51.51,0,0,0,.35-.13.66.66,0,0,0,.21-.32l.45-2.36h-2.09a1.64,1.64,0,0,1-.72-.16,1.77,1.77,0,0,1-.56-.45,1.78,1.78,0,0,1-.35-1.4l.27-1.35h9.17l-1.28,6.48A4.54,4.54,0,0,1,387,83a4.73,4.73,0,0,1-1,1.14,4.44,4.44,0,0,1-2.83,1H371.5a2.51,2.51,0,0,1-1.08-.24,2.47,2.47,0,0,1-.84-.66,2.7,2.7,0,0,1-.48-.94,2.44,2.44,0,0,1,0-1.11l2.33-11.59a2.64,2.64,0,0,1,1-1.63,2.7,2.7,0,0,1,1.77-.63Z"/><path class="cls-1" d="M266,85.12l-17-37.71h0l-2.21-4.91h3.41a8.76,8.76,0,0,0,8.61-7.11l4.08-20.33a8.66,8.66,0,0,0-.15-3.93,9.36,9.36,0,0,0-1.7-3.36A8.34,8.34,0,0,0,258,5.42a8.71,8.71,0,0,0-3.89-.87H203.16L192.58,57.46h15.87l3-15h19.35l6.73,15h0l12.54,27.66Zm-52.06-55L216,19.52l-8.77-2.65h37.19a1.58,1.58,0,0,1,1.32.65,1.78,1.78,0,0,1,.34,1.47l-1.89,9.75a1.77,1.77,0,0,1-.64,1,1.79,1.79,0,0,1-1.1.38Z"/><path class="cls-1" d="M53.38,27c-.54-.79-1.06-1.6-1.58-2.41-2.8-4.34-5.62-8.67-8.38-13A9,9,0,0,0,39,7.83l-.34-.12c-.49-.13-1-.28-1.46-.38L1.64.19C1.2.1.75.06.36,0A1.47,1.47,0,0,0,0,1.25a9.29,9.29,0,0,0,4.57,8,12,12,0,0,0,4,1.45L35.62,16.1c.5.1,1,.18,1.48.31,1.75.46,2.46,1.65,2.11,3.53-.08.27-.27.25-.48.16L37,19.8,5.19,13.42c-.59-.12-1.17-.21-1.76-.31l-.32.17a6.27,6.27,0,0,0,.23,3.38A8.89,8.89,0,0,0,7.15,22a11.16,11.16,0,0,0,4,1.62q12.72,2.52,25.44,5.11a15.93,15.93,0,0,1,2.89.83,3.22,3.22,0,0,1,1.84,3.35L9.05,26.42c-.45-.09-1.35-.23-1.35-.23s-.28,0-.36.13a3.08,3.08,0,0,0,0,1,9.48,9.48,0,0,0,6.6,9.09,19.3,19.3,0,0,0,2,.5l20.76,4.17a2.54,2.54,0,0,1,1.42.49,10,10,0,0,0,.12,1.07,7.63,7.63,0,0,0,3.72,5.62A7.34,7.34,0,0,0,45,49.34l.56,0c.36,0,.73,0,1.09-.07a7.4,7.4,0,0,0,6-4.4,7.7,7.7,0,0,0,.74-2.65c.42-2.09,1.16-5.89,1.52-7.53C55.73,30.78,55.53,30.24,53.38,27Z"/><path class="cls-1" d="M426.88,11.13a9.52,9.52,0,0,0-1.7-3.36,8.52,8.52,0,0,0-2.95-2.35,8.74,8.74,0,0,0-3.89-.87H381.68a8.76,8.76,0,0,0-5.63,2A8.34,8.34,0,0,0,373,11.66l-9.15,45.8h15.87l3-15h22.9l-2.57,12.72-3.16,15.27h16l3.15-16.16L427,15.06A8,8,0,0,0,426.88,11.13Zm-41.72,19,2.11-10.58-8.77-2.65h30.09a1.7,1.7,0,0,1,1.36.65,1.73,1.73,0,0,1,.37,1.47L408.13,30.1Z"/></g></g></svg>